<?xml version="1.0" encoding="UTF-8"?>
<svg xmlns="http://www.w3.org/2000/svg" xmlns:xlink="http://www.w3.org/1999/xlink" width="23" height="24" viewBox="0 0 23 24" version="1.1">
<g id="surface1">
<path style=" stroke:none;fill-rule:nonzero;fill:rgb(100%,100%,100%);fill-opacity:1;" d="M 23 0.15625 L 19.136719 3.242188 C 17.105469 1.53125 14.496094 0.488281 11.664062 0.488281 C 5.261719 0.488281 0 5.785156 0 12.226562 C 0 18.667969 5.261719 23.84375 11.664062 23.84375 C 16.683594 23.84375 20.996094 20.667969 22.628906 16.191406 L 18.449219 15.167969 C 17.332031 17.820312 14.738281 19.652344 11.664062 19.652344 C 7.546875 19.652344 4.285156 16.367188 4.285156 12.226562 C 4.285156 8.085938 7.546875 4.679688 11.664062 4.679688 C 13.191406 4.679688 14.59375 5.15625 15.765625 5.957031 L 11.941406 9.019531 L 23 11.082031 Z M 23 0.15625 "/>
</g>
</svg>
